<svg width="1024" height="1024" viewBox="0 0 1024 1024" fill="none" xmlns="http://www.w3.org/2000/svg">
<g clip-path="url(#clip0_1_2)">
<path d="M829.161 54.3754C831.379 54.8762 831.379 54.8762 833.643 55.3872C848.551 58.8392 862.97 62.8215 877.258 68.2248C877.258 69.9387 877.258 71.6525 877.258 73.4183C873.568 76.2246 869.92 78.7193 866.013 81.2086C826.279 107.823 805.077 146.582 793.533 191.138C793.113 192.747 792.693 194.356 792.26 196.014C774.32 277.331 809 364.162 835.846 439.93C853.14 488.756 869.433 537.566 873.695 589.309C873.864 591.291 873.864 591.291 874.036 593.313C880.026 667.734 865.716 739.882 829.161 805.706C828.068 807.706 826.975 809.705 825.848 811.765C773.798 903.735 679.092 972.778 576.235 1002.88C527.385 1016.61 478.045 1024.16 427.211 1024.16C422.059 1024.16 416.909 1024.19 411.758 1024.22C390.902 1024.29 370.627 1023.16 349.97 1020.37C348.117 1020.13 346.265 1019.89 344.356 1019.63C265.709 1008.62 191.826 978.401 133.407 925.577C129.817 922.357 126.17 919.299 122.398 916.285C115.552 910.623 109.904 904.141 104.139 897.459C102.193 895.276 102.193 895.276 100.208 893.05C90.9802 882.561 82.4112 871.732 74.0786 860.563C73.1035 859.26 72.1284 857.957 71.1238 856.615C66.8274 850.794 62.7481 844.994 59.1456 838.741C56.3721 833.417 56.3721 833.417 52.4793 829.943C17.1101 767.411 -0.0672959 699.452 0.262659 628.261C0.266498 626.756 0.270337 625.251 0.274293 623.701C0.651919 530.919 26.623 436.157 91.6697 365.987C93.7486 363.571 95.827 361.155 97.9045 358.738C105.734 350.093 114.525 342.069 123.735 334.826C124.91 334.826 126.086 334.826 127.297 334.826C127.593 333.887 127.888 332.948 128.192 331.981C143.353 285.624 174.733 242.029 208.127 206.286C208.953 205.398 209.779 204.51 210.629 203.595C225.766 187.895 225.766 187.895 235.405 187.46C248.999 193.887 256.035 213.913 260.902 227.147C264.694 238.158 268.201 249.252 271.589 260.386C273.084 258.97 273.084 258.97 274.609 257.525C288.364 244.953 308.43 227.096 327.814 225.113C333.937 225.762 333.937 225.762 336.861 228.741C345.289 242.481 343.334 261.443 343.178 276.832C343.176 280.055 343.176 280.055 343.175 283.344C343.003 318.462 343.003 318.462 337.5 327.901C325.504 326.883 314.379 324.656 302.763 321.626C299.593 320.801 296.42 319.984 293.244 319.178C291.863 318.817 290.481 318.457 289.058 318.085C287.996 317.897 286.934 317.708 285.84 317.514C282.917 320.355 282.988 324.054 282.277 327.901C284.411 328.301 286.544 328.7 288.742 329.112C342.077 339.366 385.883 360.568 426.569 395.417C428.849 397.285 428.849 397.285 431.176 399.191C432.484 400.266 433.793 401.342 435.142 402.45C436.256 403.363 437.369 404.276 438.517 405.216C440.82 407.536 440.82 407.536 440.82 410.998C441.849 411.391 442.878 411.783 443.937 412.188C448.951 415.03 451.557 418.677 455.071 423.116C456.247 423.687 457.423 424.259 458.634 424.847C458.634 425.99 458.634 427.133 458.634 428.31C459.653 428.754 460.673 429.198 461.723 429.655C466.165 431.985 469.515 434.73 473.33 437.939C491.97 452.656 518.323 468.595 542.359 471.589C543.534 472.732 544.71 473.874 545.921 475.052C551 476.562 556.028 477.91 561.174 479.163C562.675 479.54 564.176 479.917 565.722 480.305C573.289 482.188 580.871 483.972 588.494 485.628C589.856 485.926 591.219 486.224 592.623 486.532C595.202 487.089 597.785 487.63 600.372 488.153C612.678 490.794 612.678 490.794 617.177 495.826C619.357 510.923 607.709 523.959 599.029 535.534C568.5 573.9 530.613 598.932 484.727 617.442C481.79 618.539 481.79 618.539 480.01 620.47C479.827 624.638 479.764 628.746 479.788 632.913C479.781 636.324 479.781 636.324 479.774 639.804C479.878 646.323 480.354 652.775 480.887 659.273C486.1 727.224 483.174 800.876 451.508 862.835C450.944 863.949 450.379 865.063 449.797 866.211C433.41 897.831 408.3 921.725 376.69 939.007C374.966 939.953 373.241 940.899 371.465 941.874C339.447 958.424 303.666 963.334 268.026 966.706C380.58 1006.9 513.7 998.275 622.06 949.86C659.933 932.302 693.997 910.722 724.574 882.778C728.578 879.161 732.655 875.743 736.863 872.357C745.631 864.942 752.548 856.123 759.687 847.255C761.101 845.561 762.516 843.867 763.973 842.122C822.865 770.31 849.752 676.516 839.397 585.448C833.295 537.118 817.864 491.623 801.554 445.826C783.156 394.117 765.084 340.839 757.906 286.353C757.582 284.117 757.258 281.881 756.924 279.577C755.526 266.927 755.689 254.16 755.679 241.451C755.678 240.096 755.676 238.741 755.675 237.346C755.754 181.823 772.222 135.61 805.495 90.5543C807.951 87.6903 807.951 87.6903 807.784 85.5366C792.125 82.7956 777.037 81.51 761.134 81.6414C759.037 81.6544 756.939 81.6674 754.777 81.6807C692.964 82.4157 634.943 99.9277 585.112 135.741C582.811 137.391 582.811 137.391 580.463 139.075C524.167 181.153 492.915 243.111 483.573 310.59C483.222 312.852 483.222 312.852 482.863 315.161C478.461 348.23 479.589 387.583 489.829 419.464C490.699 423.116 490.699 423.116 488.917 428.31C484.982 425.318 481.048 422.324 477.116 419.329C476.016 418.494 474.916 417.658 473.783 416.797C471.578 415.117 469.38 413.429 467.189 411.734C465.099 410.128 462.988 408.548 460.854 406.999C454.873 402.519 451.939 399.617 450.952 392.28C450.724 390.613 450.497 388.946 450.263 387.228C449.21 376.108 448.379 365.026 447.946 353.869C447.849 351.586 447.753 349.303 447.653 346.951C445.51 270.821 474.58 197.186 527.679 141.598C544.078 124.789 561.701 110.471 581.549 97.6548C582.546 96.9993 583.543 96.3438 584.57 95.6684C610.038 79.1107 639.075 68.3385 668.115 59.2363C672.355 57.9597 672.355 57.9597 675.962 56.1066C679.401 55.677 682.842 55.2533 686.287 54.8699C689.887 54.4165 693.457 53.7533 697.019 53.0702C738.705 45.1769 787.736 44.9611 829.161 54.3754ZM221.71 244.805C210.039 266.431 200.875 288.421 192.986 311.563C192.549 312.836 192.111 314.108 191.661 315.419C186.293 330.005 186.293 330.005 184.301 345.213C196.83 342.849 209.284 340.249 221.71 337.423C223.384 337.055 225.058 336.686 226.783 336.307C228.379 335.943 229.975 335.58 231.619 335.205C233.055 334.882 234.49 334.56 235.968 334.228C239.881 333.269 239.881 333.269 243.087 329.633C243.418 315.752 240.247 301.711 237.297 288.193C236.91 286.393 236.523 284.593 236.124 282.739C233.156 269.494 229.325 257.156 223.492 244.805C222.904 244.805 222.316 244.805 221.71 244.805ZM121.953 573.729C120.134 575.158 120.134 575.158 118.279 576.616C85.1064 603.124 63.3148 642.974 52.4793 682.793C52.0407 684.342 51.6021 685.89 51.1503 687.486C42.3233 724.994 50.6676 768.651 69.6182 802.156C70.4288 803.328 71.2394 804.499 72.0745 805.706C72.6624 805.706 73.2502 805.706 73.8559 805.706C73.8139 803.817 73.8139 803.817 73.7711 801.889C72.4251 731.556 83.2915 662.125 135.159 609.348C172.693 573.141 224.262 562.551 275.296 562.47C311.337 562.653 346.561 568.387 381.888 574.885C434.619 584.552 481.416 588.716 528.275 558.831C541.16 550.406 541.16 550.406 551.266 539.105C550.161 539.4 549.057 539.694 547.919 539.998C544.517 540.902 541.114 541.801 537.71 542.696C533.566 543.796 529.428 544.919 525.296 546.064C523.101 546.659 520.906 547.255 518.644 547.869C515.623 548.703 515.623 548.703 512.541 549.553C492.564 554.303 472.442 555.336 451.954 555.227C450.677 555.223 449.401 555.219 448.086 555.215C408.857 555.033 370.715 549.117 332.164 542.536C330.826 542.31 329.487 542.084 328.108 541.852C325.599 541.427 323.091 540.996 320.585 540.556C313.658 539.389 307.106 539.071 300.091 539.105C299.503 538.534 298.915 537.962 298.31 537.374C236.104 525.927 170.88 531.512 121.953 573.729ZM384.818 628.369C382.999 628.836 381.18 629.302 379.305 629.783C323.754 644.308 273.135 665.516 228.836 701.836C226.906 703.315 224.976 704.793 223.046 706.272C216.605 711.821 211.22 717.955 205.678 724.341C203.604 726.617 203.604 726.617 201.489 728.939C168.378 765.998 147.792 812.658 150.845 862.24C153.711 886.025 159.761 907.949 179.653 923.237C188.486 929.504 197.546 934.547 207.459 939.007C204.784 932.096 201.438 925.729 197.884 919.207C179.489 884.395 178.084 846.347 189.973 809.405C199.675 781.086 217.124 758.213 237.743 736.459C239.015 735.08 240.287 733.701 241.598 732.28C259.244 714.071 281.582 698.946 303.654 686.255C305.484 685.162 307.314 684.068 309.2 682.942C332.081 669.656 356.844 659.993 382.035 651.632C381.72 652.555 381.405 653.479 381.081 654.431C378.326 668.154 383.323 683.157 391.122 694.526C404.806 710.094 424.122 716.417 444.383 719.148C447.351 719.2 450.322 719.214 453.29 719.148C453.29 715.72 453.29 712.292 453.29 708.76C451.085 708.403 448.881 708.046 446.61 707.678C430.745 704.177 415.928 697.392 405.791 684.754C398.869 674.015 396.362 662.461 398.067 649.9C400.571 640.431 405.366 632.249 410.537 623.933C401.433 623.933 393.582 626.12 384.818 628.369ZM73.8559 805.706C75.6373 809.169 75.6373 809.169 75.6373 809.169L73.8559 805.706Z" fill="var(--icon-color, #2272EAFF)"/>
<path d="M1000.65 14.1863C1014.67 25.829 1022.49 40.6249 1024.22 58.4325C1024.74 76.2478 1019.53 90.6931 1007.74 104.38C994.22 117.706 978.816 123.605 959.813 124.226C948.336 123.961 939.491 121.861 929.433 116.529C928.325 115.961 927.216 115.393 926.074 114.808C912.995 106.962 903.492 93.175 899.165 79.0176C895.071 60.5586 897.5 43.6823 907.128 26.9858C916.997 13.5071 931.433 5.13927 947.801 1.03433C967.658 -1.97873 984.198 3.6572 1000.65 14.1863Z" fill="var(--icon-color, #2272EAFF)"/>
</g>
<defs>
<clipPath id="clip0_1_2">
<rect width="1024" height="1024" fill="white"/>
</clipPath>
</defs>
</svg>
